# xmcd
#
# Track frame offsets:
#	150
#	18837
#	45282
#	60025
#	86595
#	100367
#	121400
#	140542
#	155760
#	167125
#	177727
#
# Disc length: 2596 seconds
#
# Revision: 1
# Processed by: cddbd v1.5.2PL0 Copyright (c) Steve Scherf et al.
# Submitted via: audiograbber 1.83.01
#
DISCID=890a220b
DTITLE=John Pinamonti - End Of Smith
DYEAR=2009
DGENRE=Blues
TTITLE0=End Of Smith
TTITLE1=It Wasn't The Rain
TTITLE2=Eye On You
TTITLE3=The Burrow
TTITLE4=Spaceman Blues
TTITLE5=San Marino
TTITLE6=Mean To Me
TTITLE7=Subprime Blues
TTITLE8=Use Me For Parts
TTITLE9=300mm  Man
TTITLE10=Dreamland
EXTD=
EXTT0=
EXTT1=
EXTT2=
EXTT3=
EXTT4=
EXTT5=
EXTT6=
EXTT7=
EXTT8=
EXTT9=
EXTT10=
PLAYORDER=
